<svg xmlns="http://www.w3.org/2000/svg" xmlns:xlink="http://www.w3.org/1999/xlink" version="1.1" x="0px" y="0px" viewBox="0 0 500 500" enable-background="new 0 0 500 500" xml:space="preserve" style="fill: rgb(0, 0, 0);">
<g id="__id365_sgmde7so0i">
	<circle cx="250" cy="250" r="250" style="fill: rgb(32, 45, 55);"></circle>
</g>
<g id="__id366_sgmde7so0i">
	<path d="M217.432,245.947c0,0-52.703-161.43-117.883-113.527c-21.953,16.13-4.763,43.297-4.763,43.297   s-16.098-1.172-22.621,15.023C60.57,219.534,117.647,270.073,217.432,245.947z" style="fill: rgb(247, 137, 127);"></path>
	<path d="M272.03,245.947c0,0,52.701-161.43,117.881-113.527c21.958,16.13,4.762,43.297,4.762,43.297   s16.102-1.172,22.625,15.023C428.895,219.534,371.819,270.073,272.03,245.947z" style="fill: rgb(247, 137, 127);"></path>
</g>
<g id="__id367_sgmde7so0i">
	<path d="M218.24,268.189c0,0-184.282-7.187-138.052,89.478C130.573,429.961,209.603,327.152,218.24,268.189z" style="fill: rgb(247, 137, 127);"></path>
	<path d="M272.157,268.189c0,0,184.282-7.187,138.043,89.478C359.824,429.961,280.796,327.152,272.157,268.189z" style="fill: rgb(247, 137, 127);"></path>
</g>
<g id="__id368_sgmde7so0i">
	<path d="M253.65,259.949c0,28.346-4.582,51.321-10.243,51.321c-5.65,0-10.238-22.975-10.238-51.321   s4.588-51.329,10.238-51.329C249.068,208.62,253.65,231.603,253.65,259.949z" style="fill: rgb(255, 252, 227);"></path>
	<g>
		<path d="M241.333,214.313c0.783-13.721-4.842-25.551-13.097-25.722c-2.6-0.049-4.856,1.758-5.048,4.358    c-0.193,2.6,1.758,4.863,4.354,5.054c3.146,0.236,4.378-1.701,4.779-3.153C239.544,198.174,240.384,209.462,241.333,214.313z" style="fill: rgb(255, 252, 227);"></path>
		<path d="M245.493,214.313c-0.783-13.721,4.84-25.551,13.089-25.722c2.604-0.049,4.858,1.758,5.054,4.358    c0.191,2.6-1.758,4.863-4.358,5.054c-3.146,0.236-4.374-1.701-4.772-3.153C247.28,198.174,246.439,209.462,245.493,214.313z" style="fill: rgb(255, 252, 227);"></path>
	</g>
</g>
</svg>