<svg xmlns="http://www.w3.org/2000/svg" xmlns:xlink="http://www.w3.org/1999/xlink" version="1.1" x="0px" y="0px" viewBox="0 0 498.6 414.9" enable-background="new 0 0 498.6 414.9" xml:space="preserve" style="fill: rgb(0, 0, 0);">
<g id="__id292_sapde86eca">
	<g id="__id293_sapde86eca">
		<path d="M156.1,321.3c7.6-41.6-34.8-76.7-45-52.7c-8.9,20.9,23.9,54.2,23.9,54.2L156.1,321.3z" style="fill: rgb(255, 252, 227);"></path>
		<path d="M116,325.5c18,38.2-13.8,83-29.9,62.5c-14-17.9,9.1-58.5,9.1-58.5L116,325.5z" style="fill: rgb(255, 252, 227);"></path>
		<path d="M209.3,316.9c20.8,44.2-17.9,93.1-36.4,69.4c-16.2-20.7,10.5-67.6,10.5-67.6L209.3,316.9z" style="fill: rgb(255, 252, 227);"></path>
		<path d="M414.9,153.5c-44.2,12-85.9-30.6-61-43.8c21.7-11.5,60.7,20.8,60.7,20.8L414.9,153.5z" style="fill: rgb(255, 252, 227);"></path>
		<path d="M415.8,109.8c42.9,16,88.4-22.5,64.8-38C460.1,58.4,418.3,87,418.3,87L415.8,109.8z" style="fill: rgb(255, 252, 227);"></path>
		<path d="M415,211.4c49.6,18.5,98.9-27.7,71.6-45.6c-23.8-15.6-72,17.5-72,17.5L415,211.4z" style="fill: rgb(255, 252, 227);"></path>
		<path d="M353.1,335.4c-15.6-21-23.4-45-41.5-65.1c-20.5-22.7-50.6-28.7-78.9-28.5c-19.8,0.1-38.5,3.2-57.5,5.6    l-0.2,0.4c14.1,23.7,23.4,45,41.5,65.1c20.5,22.7,50.6,28.7,78.8,28.5c19.8-0.1,38.5-3.2,57.5-5.6" style="fill: rgb(255, 252, 227);"></path>
		<path d="M343.8,243.4c2.7-24.5,13.9-47.4,14-72.4c0.1-28.3-19.3-48.3-41.7-62.6c-15.7-10-32.6-17.1-49.3-24.9    l-0.4,0.2c-5.9,25.8-13.9,47.3-14,72.4c-0.1,28.3,19.3,48.4,41.7,62.6c15.7,10,32.6,17.1,49.3,24.9" style="fill: rgb(255, 252, 227);"></path>
	</g>
	<g id="__id294_sapde86eca">
		<path d="M326.9,276.2c1.3,1,2.6-1.2,1.3-2.2c-24.9-18.1-55.4-29.7-85.4-35.1c-1.6-0.3-2.3,2.2-0.7,2.4    C272.1,246.7,302.2,258.2,326.9,276.2L326.9,276.2z" style="fill: rgb(173, 155, 148);"></path>
		<path d="M335.1,242.5c1.2,1.2,2.9-0.6,1.8-1.8c-21.4-21.6-37.4-49.7-47.1-78.3c-0.5-1.5-3-0.9-2.4,0.7    C297.3,192.1,313.4,220.5,335.1,242.5L335.1,242.5z" style="fill: rgb(173, 155, 148);"></path>
		<path d="M312.9,331.3c1.6,0.6,2.3-2,0.7-2.6c-22.5-7.8-48-10-71.6-11.2c-66.7-3.4-133.2,6.7-197.6,23.6    c-1.7,0.4-1,3,0.7,2.6c65-17.1,133-27.8,200.4-23.3C267.8,321.8,291.5,323.9,312.9,331.3L312.9,331.3z" style="fill: rgb(173, 155, 148);"></path>
		<path d="M156.8,320.8c22.6,37.7-6.9,84.2-25.6,64.7c-16.3-17.1,3.4-61.5,3.4-61.5L156.8,320.8z" style="fill: rgb(246, 192, 177);"></path>
		<path d="M17,356.1c-7-22.4,51.5-21.6,51.5-21.6S24.9,381,17,356.1z" style="fill: rgb(246, 192, 177);"></path>
		<path d="M211.6,317.5c8.8-48-44.3-91.8-56.1-64.1c-10.3,24.1,28.2,64.9,28.2,64.9L211.6,317.5z" style="fill: rgb(246, 192, 177);"></path>
		<path d="M112.8,328.2c3-36.6-16.6-53-37.9-43.4c-18,8.1,25.2,44.9,25.2,44.9L112.8,328.2z" style="fill: rgb(246, 192, 177);"></path>
		<path d="M84.4,332.9c-6.1-11-15.4-25-27.7-29.7c-9.7-3.8-21.4-1.1-23.2,10.7c-2.3,15,31,25.8,42.2,22    C75.8,335.9,84.4,333,84.4,332.9z" style="fill: rgb(246, 192, 177);"></path>
		<path d="M71.6,335.4c-11.2,3.7-21,10.5-26,21.2c-4.4,9.5-5.9,23.4,8.6,23.3c9.8-0.1,16-14.2,19.6-21.5    c1.8-3.7,8.5-25.7,10.9-26.5C84.1,332.8,71.6,335.4,71.6,335.4z" style="fill: rgb(246, 192, 177);"></path>
		<path d="M437.3,323.1c0.8,1.7,3.3,0.2,2.5-1.5c-9.9-22.3-14.5-48-17.9-72c-10.4-72.4-5.5-146.1,7.1-217.9    c0.3-1.8-2.5-2.6-2.8-0.8c-12.4,71-17.8,144.4-7.5,216.1C422.3,272.5,426.8,299.5,437.3,323.1L437.3,323.1z" style="fill: rgb(173, 155, 148);"></path>
		<path d="M413.6,154.7c42.8,21,91.1-15.5,68.2-33.9c-19.9-16.1-66.1,9.2-66.1,9.2L413.6,154.7z" style="fill: rgb(246, 192, 177);"></path>
		<path d="M415.9,217.2c-51.1,13.8-103.1-39.5-74.2-54.8c25.1-13.3,71.3,24.6,71.3,24.6L415.9,217.2z" style="fill: rgb(246, 192, 177);"></path>
		<path d="M422.5,61c2.9-12.4,9.4-23.6,20.6-30c9.9-5.6,24.7-8.5,25.9,7.1c0.8,10.5-13.9,18.6-21.4,23.1    c-3.8,2.3-27.4,12-28,14.7C420.4,75.9,422.5,61,422.5,61z" style="fill: rgb(246, 192, 177);"></path>
		<path d="M421,75.1c-12.4-5.6-28.4-14.4-34.6-27.2c-5-10.1-3.2-23,9.5-26c15.9-3.8,30.6,31.1,27.5,43.6    C423.4,65.5,421,75.1,421,75.1z" style="fill: rgb(246, 192, 177);"></path>
		<path d="M418.4,106.2c-39.3,6.6-58.7-13.1-50.3-36.9c7.1-20.2,50.7,23.2,50.7,23.2L418.4,106.2z" style="fill: rgb(246, 192, 177);"></path>
		<path d="M429.9,0c-25.4-1.2-8.4,59.9-8.4,59.9S458.1,1.3,429.9,0z" style="fill: rgb(246, 192, 177);"></path>
	</g>
	<g id="__id295_sapde86eca">
		<path d="M274.9,118.3c-5.2,2.7-1.5,5.5-2.6,6.2c-2.6,1.7-3.8-5.2-9-2.5c-6.6,3.3-0.1,10-1.9,11.3    c-1.9,1.4-4.4-1.5-8.5,2.9c-9.5,10.2,38.6,37.4,38.6,37.4C302.9,159.9,286,112.5,274.9,118.3z" style="fill: rgb(247, 137, 127);"></path>
		<path d="M213.1,152.1c-0.4,0.7-0.3,1.7,0.8,2.8c1.1,1.2,2.1,1.5,2.9,1.3c0.2,1.1,0.9,2,2.9,2    c2.5,0.1,3.4-0.9,3.5-2.2c0.9,0.6,1.9,0.7,3.2-0.5c1.4-1.3,1.4-2.5,0.7-3.5c1.5-0.4,2.5-1.3,2-3.1c-0.3-1.1-1-1.7-1.8-2    c0.4-0.6,0.5-1.4-0.2-2.4c-0.9-1.3-1.9-1.5-2.9-1.2c0-1.1-0.5-2.1-2.2-2.5c-2.5-0.7-3.3,0.6-3.3,2.3c-0.6-0.7-1.5-1-2.9-0.3    c-2,1.1-2.1,2.4-1.2,3.6c-1.3-0.2-2.4,0.3-2.6,2.6C211.6,150.7,212.2,151.7,213.1,152.1z M219.8,149.2    C219.8,149.2,219.8,149.2,219.8,149.2C219.8,149.2,219.8,149.2,219.8,149.2C219.8,149.2,219.8,149.2,219.8,149.2z" style="fill: rgb(247, 137, 127);"></path>
		<path d="M180.2,198.6c-0.4,0.7-0.3,1.7,0.8,2.8c1.1,1.2,2.1,1.5,2.9,1.3c0.2,1.1,0.9,2,2.9,2    c2.5,0.1,3.4-0.9,3.5-2.2c0.9,0.6,1.9,0.7,3.2-0.5c1.4-1.3,1.4-2.5,0.7-3.5c1.5-0.4,2.5-1.3,2-3.1c-0.3-1.1-1-1.7-1.8-2    c0.4-0.6,0.5-1.4-0.2-2.4c-0.9-1.3-1.9-1.5-2.9-1.2c0-1.1-0.5-2.1-2.2-2.5c-2.5-0.7-3.3,0.6-3.3,2.3c-0.6-0.7-1.5-1-2.9-0.3    c-2,1.1-2.1,2.4-1.2,3.6c-1.3-0.2-2.4,0.3-2.6,2.6C178.8,197.2,179.3,198.2,180.2,198.6z M186.9,195.6    C186.9,195.7,186.9,195.7,186.9,195.6C186.9,195.7,186.9,195.7,186.9,195.6C186.9,195.7,186.9,195.7,186.9,195.6z" style="fill: rgb(247, 137, 127);"></path>
		<path d="M169,160.8c-0.7,1.3-0.5,2.9,1.4,4.9c2.1,2.1,3.8,2.6,5.2,2.3c0.3,2,1.7,3.5,5.1,3.7    c4.4,0.1,6.1-1.6,6.3-3.9c1.6,1.1,3.5,1.2,5.8-0.9c2.5-2.3,2.5-4.4,1.3-6.3c2.8-0.6,4.6-2.4,3.6-5.7c-0.6-2-1.8-3.1-3.3-3.5    c0.8-1.1,0.8-2.5-0.4-4.4c-1.6-2.3-3.5-2.8-5.3-2.2c0-2-1-3.7-4-4.5c-4.5-1.3-5.9,1-6,4.2c-1.1-1.3-2.7-1.9-5.1-0.6    c-3.6,2-3.7,4.3-2.2,6.4c-2.4-0.4-4.4,0.5-4.7,4.7C166.4,158.2,167.4,160,169,160.8z M181,155.4c0,0,0,0.1,0.1,0.1c0,0,0,0-0.1,0    C181,155.5,181,155.4,181,155.4z" style="fill: rgb(247, 137, 127);"></path>
		<path d="M437.9,367.7c-62.1,45-68.7-84.3-68.7-84.3C429.9,288.3,487.1,332.1,437.9,367.7z" style="fill: rgb(247, 137, 127);"></path>
		<path d="M361.2,391c-76.9-8.3,5-108.4,5-108.4C390.7,299.8,444.9,400,361.2,391z" style="fill: rgb(247, 137, 127);"></path>
		<path d="M279.2,372.7c-2.2,2.1,1.8,9.8,9,17.1c7.2,7.3,14.7,11.4,16.9,9.3c2.2-2.2-1.8-9.8-9-17.1    C288.9,374.7,281.4,370.6,279.2,372.7z" style="fill: rgb(247, 137, 127);"></path>
		<path d="M235.6,309.2c-3-0.3-6.1,7.6-7,17.6c-0.9,10,0.8,18.3,3.8,18.6c3,0.3,6.1-7.6,7-17.6    C240.3,317.8,238.6,309.5,235.6,309.2z" style="fill: rgb(247, 137, 127);"></path>
		<path d="M405.9,189.3c72.7,29.9-35.6,114.2-35.6,114.2S327.6,157.1,405.9,189.3z" style="fill: rgb(247, 137, 127);"></path>
		<path d="M482.6,303.5c-1.9-55-120.9-28.3-120.5-28.4C362.2,309.7,484.9,369.6,482.6,303.5z" style="fill: rgb(247, 137, 127);"></path>
		<path d="M469.1,243c24.3,60.3-98.7,44.4-98.7,44.4C362.3,267.3,444.8,182.7,469.1,243z" style="fill: rgb(247, 137, 127);"></path>
		<path d="M234,112.8c-2.6-0.5-2.8-7.8-0.3-16.3c2.5-8.5,6.5-15,9.1-14.5c2.6,0.5,2.8,7.8,0.3,16.3    C240.7,106.8,236.6,113.3,234,112.8z" style="fill: rgb(247, 137, 127);"></path>
		<path d="M150.6,230.3c-1.4,2.3-8.4,0.8-15.5-3.3c-7.2-4.1-11.8-9.3-10.4-11.6c1.4-2.3,8.4-0.8,15.5,3.3    C147.4,222.9,152,228,150.6,230.3z" style="fill: rgb(247, 137, 127);"></path>
		<path d="M331.2,47.2c-2.2-2.3,2.6-9.6,10.8-16.4c8.2-6.8,16.7-10.4,18.9-8.2c2.3,2.3-2.6,9.6-10.7,16.4    C341.9,45.9,333.5,49.5,331.2,47.2z" style="fill: rgb(247, 137, 127);"></path>
		<path d="M317.7,76.9c-3.1,0.9-8-6.1-10.9-15.7c-2.9-9.6-2.7-18,0.5-18.9c3.2-0.9,8,6.2,10.9,15.7    C321.1,67.6,320.8,76,317.7,76.9z" style="fill: rgb(247, 137, 127);"></path>
		<path d="M418.2,141.9c2.1-2.4,9.7,2,17,9.8c7.2,7.8,11.4,16,9.2,18.4c-2.1,2.4-9.7-2-17-9.8    C420.2,152.5,416.1,144.3,418.2,141.9z" style="fill: rgb(247, 137, 127);"></path>
		<path d="M410.2,108.3c-0.3-3.2,7.5-6.8,17.4-7.9c9.9-1.1,18.2,0.6,18.5,3.8c0.3,3.3-7.5,6.8-17.4,8    C418.8,113.3,410.5,111.6,410.2,108.3z" style="fill: rgb(247, 137, 127);"></path>
		<path d="M334.9,189.2c72.7-24.4,40.4,100.9,40.4,100.9C319,267.4,277.4,208.5,334.9,189.2z" style="fill: rgb(247, 137, 127);"></path>
		<path d="M295.4,367.1c-55.4-55.7,77.2-91.5,77.2-91.5S355.2,427.2,295.4,367.1z" style="fill: rgb(247, 137, 127);"></path>
		<path d="M274.4,233.1c-17.6,63.8,106.5,63,106.5,63C391.2,263.1,291.9,169.3,274.4,233.1z" style="fill: rgb(247, 137, 127);"></path>
		<path d="M260.4,299c-5.2-64.8,107.4-13,107.4-13C369.5,307.6,265.6,363.7,260.4,299z" style="fill: rgb(247, 137, 127);"></path>
	</g>
	<g id="__id296_sapde86eca">
		<path d="M240.1,158.3c-3.6,6.3,21.5,2.1,8.1,18c-13.4,15.8,45.1-0.7,45.1-0.7C270.9,149.7,243.7,152,240.1,158.3z" style="fill: rgb(243, 189, 189);"></path>
		<path d="M363.8,280c60.6,4.9,125.3,51.1,74.1,87.7" style="fill: rgb(243, 189, 189);"></path>
		<path d="M366.4,279.7c24.5,17.2,78.6,120.3-5.2,111.3" style="fill: rgb(243, 189, 189);"></path>
		<path d="M370.3,303.5c0,0-42.7-146.4,35.6-114.2" style="fill: rgb(243, 189, 189);"></path>
		<path d="M371.7,289.1c-9-21.1,72.6-107.4,97.4-46.1" style="fill: rgb(243, 189, 189);"></path>
		<path d="M482.6,307.7c2.6-66.2-123.6-23.9-123.6-23.9" style="fill: rgb(243, 189, 189);"></path>
		<path d="M237.2,311.2c-0.9-3.8-12-4.5-24.7-1.5c-12.7,3-22.3,8.5-21.4,12.4c0.9,3.8,11.9,4.5,24.7,1.5    C228.5,320.5,238.1,315,237.2,311.2z" style="fill: rgb(243, 189, 189);"></path>
		<path d="M281.3,372.5c-3.5-1.8-11.1,6.2-17.1,17.8c-6,11.7-8,22.5-4.5,24.3c3.5,1.8,11.2-6.2,17.1-17.9    C282.8,385.2,284.8,374.3,281.3,372.5z" style="fill: rgb(243, 189, 189);"></path>
		<path d="M150.9,229.5c0.2,3.4-8.6,7.5-19.8,9.3c-11.2,1.8-20.4,0.6-20.7-2.8c-0.2-3.3,8.6-7.5,19.8-9.3    C141.4,225,150.7,226.2,150.9,229.5z" style="fill: rgb(243, 189, 189);"></path>
		<path d="M234.9,112.4c-2.9,2-10.3-3.6-16.5-12.5c-6.2-8.9-8.8-17.7-5.9-19.7c3-2,10.3,3.6,16.5,12.5    C235.3,101.6,237.9,110.4,234.9,112.4z" style="fill: rgb(243, 189, 189);"></path>
		<path d="M333,47.9c-4.3,0-7.8-10.6-7.9-23.6c-0.1-13,3.3-23.6,7.6-23.5c4.3,0,7.8,10.6,7.9,23.6    C340.7,37.4,337.3,47.9,333,47.9z" style="fill: rgb(243, 189, 189);"></path>
		<path d="M318.7,76.3c-2.6,3.2-13.9-0.3-25.2-7.8C282.1,61,275,52.3,277.5,49.1c2.6-3.2,13.8,0.3,25.2,7.8    C314.1,64.4,321.2,73.1,318.7,76.3z" style="fill: rgb(243, 189, 189);"></path>
		<path d="M204.6,264.7c1.4,7.1,17.7-12.5,17.9,8.3c0.2,20.7,33.6-30,33.6-30C222.3,238,203.2,257.6,204.6,264.7z" style="fill: rgb(243, 189, 189);"></path>
		<path d="M231.5,194.8c5.7-4.5,5.3,20.9,19,5.3c13.7-15.6,6.1,44.5,6.1,44.5C227.6,226.4,225.8,199.2,231.5,194.8z" style="fill: rgb(243, 189, 189);"></path>
		<path d="M410.5,108.8c-2.7-3.1,2.7-13.6,12.1-23.4c9.4-9.8,19.2-15.3,21.9-12.2c2.7,3.1-2.7,13.6-12.2,23.4    C423,106.4,413.2,111.8,410.5,108.8z" style="fill: rgb(243, 189, 189);"></path>
		<path d="M417.6,143.6c-0.2-4.3,10.1-8.4,23.1-9.2c13-0.8,23.7,2,23.9,6.2c0.2,4.3-10.1,8.4-23.1,9.2    C428.6,150.7,417.9,147.9,417.6,143.6z" style="fill: rgb(243, 189, 189);"></path>
		<path d="M196.5,233.2c1.9-5.5,5.2-2.3,5.7-3.5c1.3-2.8-5.7-3-3.9-8.5c2.3-7.1,9.9-1.6,10.9-3.6    c1.1-2.1-2.1-4.1,1.6-8.8c8.7-10.9,42.8,32.5,42.8,32.5C241.8,254.7,192.5,245.1,196.5,233.2z" style="fill: rgb(247, 137, 127);"></path>
		<path d="M379.5,294.9c-56.4-22.7-105.2-85.6-44.6-105.8" style="fill: rgb(243, 189, 189);"></path>
		<path d="M372.6,275.7c0,0-17.4,151.5-77.2,91.5" style="fill: rgb(243, 189, 189);"></path>
		<path d="M367.1,284c1.7,21.6-101.3,81-106.7,15" style="fill: rgb(243, 189, 189);"></path>
		<path d="M274.4,233.1c-18.2,67,110.8,59.6,110.8,59.6" style="fill: rgb(243, 189, 189);"></path>
	</g>
	<g id="__id297_sapde86eca">
		<path d="M292.7,175.9c0.3,0.6,1.2,0,0.9-0.5c-4.8-7.8-13.6-12.2-22.1-7.5c-0.6,0.3-0.1,1.2,0.5,0.9    C279.9,164.3,288.2,168.6,292.7,175.9L292.7,175.9z" style="fill: rgb(255, 255, 255);"></path>
		<path d="M293,175.9c0.3,0.6,1.2,0.1,0.9-0.5c-4.2-7.5-3.9-16.7,4-21.6c0.6-0.3,0-1.2-0.5-0.9    C289,158.1,288.5,167.9,293,175.9L293,175.9z" style="fill: rgb(255, 255, 255);"></path>
		<path d="M274.9,154.5c0.3-0.6,1-0.9,1.6-0.7c0.6,0.3,0.9,1,0.7,1.6c-0.3,0.6-1,0.9-1.6,0.7    C275,155.8,274.7,155.1,274.9,154.5z" style="fill: rgb(255, 255, 255);"></path>
		<path d="M276.1,148.1c0.3-0.6,1-0.9,1.6-0.6c0.6,0.3,0.9,1,0.7,1.6c-0.3,0.6-1,0.9-1.6,0.7    C276.1,149.4,275.8,148.7,276.1,148.1z" style="fill: rgb(255, 255, 255);"></path>
		<path d="M282.3,149.2c0.3-0.6,1-0.9,1.6-0.7c0.6,0.3,0.9,1,0.7,1.6c-0.3,0.6-1,0.9-1.6,0.7    C282.3,150.5,282.1,149.8,282.3,149.2z" style="fill: rgb(255, 255, 255);"></path>
		<path d="M292.5,175.4c0.3,0.6,1.2,0.1,0.9-0.5c-4-7.2-7.9-14.3-11.9-21.5c-0.3-0.6-1.2-0.1-0.9,0.5    C284.5,161.1,288.5,168.2,292.5,175.4L292.5,175.4z" style="fill: rgb(255, 255, 255);"></path>
		<path d="M220.1,148.8c-0.3-0.3-0.8-0.3-1.1-0.1c-0.3,0.3-0.3,0.8,0,1.1c0.3,0.3,0.8,0.3,1.1,0.1    C220.4,149.6,220.4,149.1,220.1,148.8z" style="fill: rgb(255, 255, 255);"></path>
		<path d="M187.2,195.3c-0.3-0.3-0.8-0.3-1.1-0.1c-0.3,0.3-0.3,0.8,0,1.1c0.3,0.3,0.8,0.3,1.1,0.1    C187.5,196.1,187.5,195.6,187.2,195.3z" style="fill: rgb(255, 255, 255);"></path>
		<path d="M181.6,151.3c-0.5-0.6-1.4-0.6-2-0.1c-0.5,0.5-0.5,1.4,0,2c0.5,0.6,1.4,0.6,2,0.1    C182.1,152.8,182.1,151.9,181.6,151.3z" style="fill: rgb(255, 255, 255);"></path>
		<path d="M255.8,243.1c0.6,0.3,0.9-0.7,0.3-1c-7.9-3.3-13.3-10.9-10.1-19.5c0.2-0.6-0.7-0.9-1-0.3    C241.6,231.5,247.4,239.5,255.8,243.1L255.8,243.1z" style="fill: rgb(255, 255, 255);"></path>
		<path d="M255,243.2c0.6,0.2,0.9-0.7,0.3-1c-8.5-3.2-18.2-1.2-22,7.7c-0.2,0.6,0.6,1.1,0.9,0.5    C237.8,241.9,246.9,240.2,255,243.2L255,243.2z" style="fill: rgb(255, 255, 255);"></path>
		<path d="M232.3,227.8c-0.6,0.4-0.8,1.1-0.4,1.7c0.4,0.6,1.1,0.8,1.7,0.4c0.6-0.3,0.8-1.1,0.4-1.7    C233.6,227.7,232.8,227.5,232.3,227.8z" style="fill: rgb(255, 255, 255);"></path>
		<path d="M226.1,229.9c-0.6,0.3-0.8,1.1-0.4,1.7c0.4,0.6,1.1,0.8,1.7,0.4c0.6-0.4,0.8-1.1,0.4-1.7    C227.5,229.8,226.7,229.6,226.1,229.9z" style="fill: rgb(255, 255, 255);"></path>
		<path d="M228.2,235.9c-0.6,0.3-0.8,1.1-0.4,1.7c0.4,0.6,1.1,0.8,1.7,0.4c0.6-0.3,0.8-1.1,0.4-1.7    C229.5,235.8,228.7,235.6,228.2,235.9z" style="fill: rgb(255, 255, 255);"></path>
		<path d="M255.3,243c0.6,0.2,0.9-0.7,0.3-1c-7.7-2.9-15.4-5.7-23.1-8.6c-0.6-0.2-0.9,0.7-0.3,1    C239.9,237.3,247.6,240.1,255.3,243L255.3,243z" style="fill: rgb(255, 255, 255);"></path>
		<circle cx="368.8" cy="284.7" r="12" style="fill: rgb(255, 255, 255);"></circle>
	</g>
	<g id="__id298_sapde86eca">
		<path d="M306.3,123.9c7.2,0.3-9.7,19.3,10.9,16.4c20.5-2.9-24.6,37.7-24.6,37.7    C282.7,145.4,299.1,123.6,306.3,123.9z" style="fill: rgb(243, 189, 189);"></path>
		<path d="M340.3,67.5c3.6,0,6.4,2.9,6.4,6.4c0,3.6-2.9,6.4-6.4,6.4c-3.6,0-6.4-2.9-6.4-6.4    C333.8,70.4,336.7,67.5,340.3,67.5z" style="fill: rgb(243, 189, 189);"></path>
		<path d="M15.1,320.8c3.6,0,6.4,2.9,6.4,6.5c0,3.6-2.9,6.4-6.4,6.4c-3.6,0-6.4-2.9-6.4-6.4    C8.7,323.7,11.6,320.8,15.1,320.8z" style="fill: rgb(243, 189, 189);"></path>
		<path d="M489.9,222.2c3.6,0,6.4,2.9,6.4,6.4c0,3.6-2.9,6.4-6.4,6.4c-3.6,0-6.4-2.9-6.4-6.4    C483.4,225.1,486.3,222.2,489.9,222.2z" style="fill: rgb(243, 189, 189);"></path>
		<circle cx="236.5" cy="366.4" r="6.4" style="fill: rgb(243, 189, 189);"></circle>
		<path d="M253.5,350.9c2,0,3.6,1.6,3.6,3.6c0,2-1.6,3.6-3.6,3.6c-2,0-3.6-1.6-3.6-3.6    C249.9,352.5,251.6,350.9,253.5,350.9z" style="fill: rgb(243, 189, 189);"></path>
		<circle cx="325.1" cy="92.6" r="3.6" style="fill: rgb(243, 189, 189);"></circle>
		<circle cx="170.2" cy="227.2" r="3.6" style="fill: rgb(243, 189, 189);"></circle>
		<circle cx="233.1" cy="123.2" r="3.6" style="fill: rgb(243, 189, 189);"></circle>
		<path d="M3.6,340.7c2,0,3.6,1.6,3.6,3.6c0,2-1.6,3.6-3.6,3.6c-2,0-3.6-1.6-3.6-3.6C0,342.3,1.6,340.7,3.6,340.7z" style="fill: rgb(243, 189, 189);"></path>
		<circle cx="495" cy="215.1" r="3.6" style="fill: rgb(243, 189, 189);"></circle>
		<path d="M401.5,2.3c2,0,3.6,1.6,3.6,3.6c0,2-1.6,3.6-3.6,3.6c-2,0-3.6-1.6-3.6-3.6C397.9,3.9,399.5,2.3,401.5,2.3z    " style="fill: rgb(243, 189, 189);"></path>
	</g>
</g>
</svg>